<?xml version="1.0" encoding="UTF-8"?>
<svg id="Camada_2" data-name="Camada 2" xmlns="http://www.w3.org/2000/svg" viewBox="0 0 699.53 700.79">
  <defs>
    <style>
      .cls-1 {
        fill: #fff;
      }

      .cls-2 {
        fill: #31694e;
      }

      .cls-3 {
        fill: #11472c;
      }
    </style>
  </defs>
  <g id="Camada_1-2" data-name="Camada 1">
    <g>
      <g>
        <g>
          <path class="cls-3" d="M0,615.05c0-.96.48-1.45,1.45-1.45h5.79c.97,0,1.45.48,1.45,1.45v66.41c0,.97-.48,1.45-1.45,1.45H1.45c-.97,0-1.45-.48-1.45-1.45v-66.41Z"/>
          <path class="cls-3" d="M72.54,681.57c0,.97-.48,1.45-1.45,1.45h-5.79c-.97,0-1.45-.48-1.45-1.45v-46.35c0-2.82-.41-5.14-1.23-6.96-.82-1.82-1.95-3.25-3.4-4.29-1.45-1.04-3.21-1.78-5.29-2.23-2.08-.45-4.38-.67-6.91-.67h-1c-2.53,0-4.83.22-6.91.67s-3.84,1.19-5.29,2.23c-1.45,1.04-2.58,2.47-3.4,4.29-.82,1.82-1.23,4.14-1.23,6.96v46.35c0,.97-.48,1.45-1.45,1.45h-5.79c-.97,0-1.45-.48-1.45-1.45v-46.35c0-4.31.59-7.87,1.78-10.7,1.19-2.82,2.9-5.07,5.13-6.74,2.23-1.67,4.92-2.84,8.08-3.51,3.16-.67,6.67-1,10.53-1h1c3.94,0,7.48.33,10.64,1,3.16.67,5.83,1.84,8.02,3.51,2.19,1.67,3.88,3.92,5.07,6.74,1.19,2.82,1.78,6.39,1.78,10.7v46.35Z"/>
          <path class="cls-3" d="M84.35,627.86c0-4.46,1.21-7.95,3.62-10.47,2.41-2.52,5.85-3.79,10.31-3.79h19.05c4.23,0,7.61,1.06,10.14,3.18,2.52,2.12,3.79,5.4,3.79,9.86v2.01c0,.89-.48,1.34-1.45,1.34h-5.91c-.59,0-.89-.3-.89-.89v-1.23c0-2.23-.72-3.88-2.17-4.96-1.45-1.08-3.25-1.62-5.4-1.62h-14.82c-2.38,0-4.23.61-5.57,1.84-1.34,1.22-2.01,3.17-2.01,5.85v38.55c0,2.67.67,4.62,2.01,5.85,1.34,1.22,3.19,1.84,5.57,1.84h14.82c2.15,0,3.96-.52,5.4-1.56,1.45-1.04,2.17-2.67,2.17-4.9v-1.34c0-.59.3-.89.89-.89h5.91c.96,0,1.45.45,1.45,1.34v2.12c0,4.31-1.3,7.54-3.9,9.69-2.6,2.16-5.94,3.23-10.03,3.23h-19.05c-4.46,0-7.89-1.26-10.31-3.79-2.41-2.52-3.62-6.02-3.62-10.47v-40.78Z"/>
          <path class="cls-3" d="M158.78,682.9c-.97,0-1.45-.48-1.45-1.45v-59.95h-19.39c-.89,0-1.34-.45-1.34-1.34v-5.13c0-.96.45-1.45,1.34-1.45h47.47c.89,0,1.34.48,1.34,1.45v5.13c0,.89-.44,1.34-1.34,1.34h-19.39v59.95c0,.97-.48,1.45-1.45,1.45h-5.79Z"/>
        </g>
        <g>
          <path class="cls-3" d="M254.06,596.16c8.91,0,16.41,1.11,22.48,3.34,6.07,2.23,10.97,5.54,14.71,9.94,3.73,4.4,6.41,9.86,8.02,16.38,1.61,6.52,2.42,14.01,2.42,22.48s-.84,15.77-2.51,22.23c-1.67,6.46-4.37,11.9-8.11,16.3-3.74,4.4-8.64,7.72-14.71,9.94-6.08,2.23-13.51,3.34-22.31,3.34h-28.75c-2.79,0-4.18-1.39-4.18-4.18v-95.6c0-2.78,1.39-4.18,4.18-4.18h28.75ZM256.4,681.4c7.58,0,13.48-2.12,17.71-6.35,3.9-4.45,5.85-11.36,5.85-20.72v-12.37c0-9.36-1.95-16.27-5.85-20.72-4.23-4.23-10.14-6.35-17.71-6.35h-13.71v66.52h13.71Z"/>
          <path class="cls-3" d="M372.55,596.16c2.23,0,3.34,1.11,3.34,3.34v12.03c0,2.23-1.12,3.34-3.34,3.34h-32.59c-5.91,0-8.86,2.73-8.86,8.19v15.54h34.76c2.23,0,3.34,1.11,3.34,3.34v12.03c0,2.23-1.12,3.34-3.34,3.34h-34.76v15.04c0,3.34.84,5.68,2.51,7.02,1.34,1.34,3.23,2.01,5.68,2.01h33.26c2.23,0,3.34,1.11,3.34,3.34v12.03c0,2.23-1.12,3.34-3.34,3.34h-37.44c-3.79,0-7.27-.39-10.45-1.17-3.18-.78-5.88-2.09-8.11-3.93-2.23-1.84-3.96-4.2-5.18-7.1-1.23-2.9-1.84-6.46-1.84-10.7v-57.16c0-7.69,2.14-13.59,6.44-17.72,4.29-4.12,10.17-6.18,17.63-6.18h38.94Z"/>
          <path class="cls-3" d="M386.76,700.12c-2.23,0-3.34-1.11-3.34-3.34v-76.71c0-7.69,2.14-13.59,6.44-17.72,4.29-4.12,10.17-6.18,17.63-6.18h38.94c2.23,0,3.34,1.11,3.34,3.34v12.03c0,2.23-1.12,3.34-3.34,3.34h-32.59c-5.91,0-8.86,2.73-8.86,8.19v15.54h34.76c2.23,0,3.34,1.11,3.34,3.34v12.03c0,2.23-1.12,3.34-3.34,3.34h-34.76v39.44c0,2.23-1.12,3.34-3.34,3.34h-14.87Z"/>
          <path class="cls-3" d="M518.29,596.16c2.23,0,3.34,1.11,3.34,3.34v12.03c0,2.23-1.12,3.34-3.34,3.34h-32.59c-5.91,0-8.86,2.73-8.86,8.19v15.54h34.76c2.23,0,3.34,1.11,3.34,3.34v12.03c0,2.23-1.12,3.34-3.34,3.34h-34.76v15.04c0,3.34.84,5.68,2.51,7.02,1.34,1.34,3.23,2.01,5.68,2.01h33.26c2.23,0,3.34,1.11,3.34,3.34v12.03c0,2.23-1.12,3.34-3.34,3.34h-37.44c-3.79,0-7.27-.39-10.45-1.17-3.18-.78-5.88-2.09-8.11-3.93-2.23-1.84-3.96-4.2-5.18-7.1-1.23-2.9-1.84-6.46-1.84-10.7v-57.16c0-7.69,2.14-13.59,6.44-17.72,4.29-4.12,10.17-6.18,17.63-6.18h38.94Z"/>
          <path class="cls-3" d="M529.82,674.05c0-2.23,1.11-3.34,3.34-3.34h14.87c1.34,0,2,.73,2,2.17v.67c0,2.56.78,4.51,2.34,5.85,1.56,1.34,3.73,2.01,6.52,2.01h12.53c3.23,0,5.68-.5,7.35-1.5,1.67-1,2.51-3.01,2.51-6.02v-7.35c0-2.67-.86-4.62-2.59-5.85-1.73-1.22-3.76-1.84-6.1-1.84h-14.04c-9.36,0-16.6-2.09-21.73-6.27-5.13-4.18-7.69-11.17-7.69-20.98v-9.69c0-4.9.81-9.05,2.42-12.45,1.61-3.4,3.82-6.13,6.6-8.19,2.78-2.06,6.1-3.54,9.94-4.43,3.84-.89,7.99-1.34,12.45-1.34h14.54c7.35,0,13.18,1.92,17.47,5.77,4.29,3.84,6.43,9.61,6.43,17.3v3.68c0,2.23-1.12,3.34-3.34,3.34h-14.87c-1.34,0-2-.72-2-2.17v-.67c0-2.56-.78-4.51-2.34-5.85-1.56-1.34-3.73-2.01-6.52-2.01h-12.2c-2.45,0-4.4.56-5.85,1.67-1.45,1.12-2.17,2.95-2.17,5.52v8.02c0,2.9.72,5.01,2.17,6.35,1.45,1.34,3.79,2,7.02,2h16.38c8.02,0,14.46,2.15,19.3,6.43,4.85,4.29,7.27,10.56,7.27,18.8v9.69c0,5.68-.78,10.31-2.34,13.87-1.56,3.57-3.82,6.35-6.77,8.36-2.95,2.01-6.46,3.37-10.53,4.1-4.07.72-8.61,1.09-13.62,1.09h-14.88c-7.24,0-13.04-1.98-17.38-5.93-4.34-3.95-6.52-9.67-6.52-17.13v-3.68Z"/>
          <path class="cls-3" d="M630.77,606.69c2.01-7.02,6.63-10.53,13.87-10.53h13.87c7.24,0,11.92,3.51,14.04,10.53l26.74,90.25c.67,2.12-.11,3.18-2.34,3.18h-16.21c-1.78,0-2.95-.84-3.51-2.51l-5.18-18.05h-40.78l-5.35,18.05c-.45,1.67-1.62,2.51-3.51,2.51h-16.04c-2.34,0-3.18-1.06-2.51-3.18l26.91-90.25ZM636.45,661.68h30.25l-12.87-43.96c-.45-1.67-1.12-2.51-2.01-2.51h-.33c-1,0-1.73.84-2.17,2.51l-12.87,43.96Z"/>
        </g>
      </g>
      <g>
        <g>
          <path class="cls-2" d="M350.3,466.74c-41.63-16.89-76.4-41.86-103.36-74.21l11.04-9.2c25.43,30.51,58.31,54.1,97.72,70.09l-5.4,13.32Z"/>
          <g>
            <path class="cls-3" d="M385.54,174.38c0-17.68-14.34-32.02-32.02-32.02s-32.02,14.34-32.02,32.02c0,14.2,9.26,26.23,22.06,30.42v76.31h19.93v-76.32c12.8-4.19,22.05-16.22,22.05-30.42Z"/>
            <path class="cls-3" d="M252.61,295.29c-15.31,8.85-20.54,28.44-11.69,43.75,8.85,15.31,28.44,20.54,43.75,11.69,12.3-7.11,18.07-21.14,15.29-34.32l66.06-38.2-9.98-17.25-66.07,38.2c-10.04-8.98-25.08-10.97-37.37-3.87Z"/>
            <rect class="cls-3" x="284.42" y="216.63" width="13.29" height="48.67" transform="translate(-63.14 372.55) rotate(-60)"/>
            <path class="cls-3" d="M256.14,243.45c-12.49,0-22.65-10.17-22.65-22.65s10.17-22.65,22.65-22.65,22.65,10.17,22.65,22.65-10.17,22.65-22.65,22.65ZM256.14,211.43c-5.16,0-9.37,4.2-9.37,9.37s4.2,9.37,9.37,9.37,9.37-4.2,9.37-9.37-4.2-9.37-9.37-9.37Z"/>
          </g>
          <path class="cls-2" d="M524.68,144.26l-.64-5.98-6-.42c-.77-.05-77.64-6-161.14-59.88l-3.89-2.51-3.89,2.51c-83.31,53.76-160.38,59.83-161.15,59.88l-5.79.41-.81,5.75c-.29,2.06-6.17,45.13,2.5,100.95,1.26,8.13,2.83,16.53,4.77,25.12,2.32,10.24,5.09,20.32,8.24,30.03l-48.53,19.7c-36.3-101.25-29.22-200.68-26.74-224.94,17.39-1.95,70.54-9.81,138.23-37.87,3.93,4.18,9.5,6.81,15.69,6.81,11.9,0,21.55-9.65,21.55-21.55s-9.65-21.55-21.55-21.55-21.55,9.65-21.55,21.55c0,.53.04,1.05.08,1.57-78.98,32.63-138.79,37.23-139.42,37.28l-5.79.41-.81,5.75c-.69,4.86-16.08,118.53,26.98,237.96l-.05.02,2.48,6.56c25.43,67.26,64.96,122.25,117.54,163.84-.64,2.04-.99,4.21-.99,6.46,0,11.9,9.65,21.55,21.55,21.55s21.55-9.65,21.55-21.55-9.65-21.55-21.55-21.55c-4.41,0-8.51,1.33-11.93,3.61-48.67-38.58-85.7-89.21-110.2-150.9l61.48-24.95-2.25-6.45c-3.9-11.18-7.26-22.94-9.98-34.96-11.99-52.95-9.16-99.68-7.67-115.32.63-.08,1.3-.16,2.02-.25.21-.03.44-.06.65-.09.53-.07,1.05-.14,1.63-.22.35-.05.74-.11,1.11-.16.47-.07.93-.13,1.42-.21.39-.06.82-.13,1.22-.19.52-.08,1.03-.16,1.58-.25.39-.06.8-.13,1.2-.2.61-.1,1.2-.2,1.84-.31.46-.08.94-.17,1.42-.25.61-.11,1.2-.21,1.83-.33.52-.09,1.06-.2,1.59-.3.64-.12,1.27-.24,1.94-.37.52-.1,1.07-.22,1.61-.32.7-.14,1.39-.28,2.12-.43.55-.11,1.13-.24,1.7-.36.75-.16,1.48-.31,2.25-.48.59-.13,1.2-.27,1.8-.4.77-.17,1.54-.35,2.34-.53.64-.15,1.3-.31,1.95-.46.8-.19,1.59-.38,2.41-.58.66-.16,1.35-.34,2.03-.51.83-.21,1.65-.41,2.5-.63.7-.18,1.42-.37,2.14-.56.86-.23,1.72-.45,2.6-.69.72-.19,1.45-.4,2.18-.6.9-.25,1.8-.5,2.72-.76.75-.21,1.51-.44,2.27-.66.93-.27,1.87-.55,2.82-.83.77-.23,1.56-.48,2.34-.72.95-.29,1.91-.59,2.88-.89.81-.26,1.63-.52,2.45-.79.98-.32,1.96-.63,2.95-.96.83-.27,1.66-.56,2.5-.84,1.01-.34,2.02-.68,3.04-1.04.85-.3,1.71-.6,2.57-.91,1.03-.37,2.06-.73,3.11-1.11.88-.32,1.76-.65,2.64-.97,1.06-.39,2.11-.78,3.18-1.19.89-.34,1.79-.69,2.68-1.03,1.08-.42,2.17-.84,3.26-1.28.91-.36,1.83-.74,2.76-1.11,1.09-.44,2.19-.89,3.29-1.35.94-.39,1.89-.79,2.84-1.2,1.11-.47,2.21-.94,3.33-1.43.96-.42,1.93-.85,2.9-1.28,1.12-.5,2.24-1,3.37-1.51.98-.45,1.97-.9,2.96-1.36,1.14-.53,2.27-1.06,3.42-1.6,1-.47,2-.96,3.01-1.44,1.15-.56,2.3-1.12,3.45-1.69,1.01-.5,2.03-1.01,3.05-1.53,1.16-.59,2.33-1.18,3.5-1.79,1.02-.53,2.05-1.07,3.08-1.61,1.18-.62,2.35-1.25,3.53-1.88,1.04-.56,2.08-1.13,3.13-1.7,1.18-.65,2.36-1.31,3.54-1.97,1.06-.6,2.12-1.2,3.19-1.81,1.18-.68,2.36-1.37,3.55-2.06,1.08-.63,2.15-1.27,3.23-1.91,1.18-.71,2.37-1.43,3.56-2.16,1.09-.67,2.18-1.34,3.27-2.02.53-.33,1.05-.64,1.58-.97,72.35,45.59,138.02,56.63,157.96,59.05,20.44,218.22-134.94,291.2-157.92,300.76-38.24-15.97-70.21-39.17-95.07-68.99l-11.04,9.2c26.96,32.35,61.73,57.31,103.37,74.21l2.59,1.05,2.62-.98c1.96-.73,195.45-76.07,169.15-322.55Z"/>
          <path class="cls-3" d="M591.21,88.27s-113.59-7.96-238.04-88.27v544.09s275.66-103.1,238.04-455.82Z"/>
          <path class="cls-1" d="M451.89,277.2c2.4,4.12,6.81,6.91,11.91,6.91,7.64,0,13.83-6.19,13.83-13.83s-6.19-13.83-13.83-13.83c-5.11,0-9.52,2.8-11.91,6.92h-12.7c-.56-7.27-1.97-14.3-4.16-20.99l11.72-4.85c2.33,1.78,5.2,2.88,8.36,2.88,7.64,0,13.83-6.19,13.83-13.83s-6.19-13.83-13.83-13.83c-7.01,0-12.74,5.24-13.65,12l-11.75,4.87c-3.26-6.4-7.27-12.36-11.91-17.77l9.01-9.01c1.14.3,2.31.51,3.54.51,7.64,0,13.83-6.19,13.83-13.83s-6.19-13.83-13.83-13.83-13.83,6.19-13.83,13.83c0,1.23.21,2.4.51,3.54l-9.01,9.01c-5.41-4.64-11.36-8.65-17.76-11.91l4.86-11.75c6.76-.9,12-6.64,12-13.65,0-7.64-6.19-13.83-13.83-13.83s-13.83,6.19-13.83,13.83c0,3.16,1.1,6.04,2.88,8.36l-4.85,11.72c-8.79-2.88-18.17-4.46-27.91-4.46v13.83c41.95,0,76.07,34.13,76.07,76.07s-34.13,76.07-76.07,76.07v13.83c9.74,0,19.12-1.58,27.91-4.46l4.85,11.72c-1.78,2.33-2.88,5.2-2.88,8.36,0,7.64,6.19,13.83,13.83,13.83s13.83-6.19,13.83-13.83c0-7.01-5.24-12.74-12-13.65l-4.86-11.74c6.4-3.26,12.36-7.27,17.77-11.91l9,9c-.3,1.14-.51,2.31-.51,3.54,0,7.64,6.19,13.83,13.83,13.83s13.83-6.19,13.83-13.83-6.19-13.83-13.83-13.83c-1.23,0-2.4.21-3.54.51l-9-9c4.64-5.41,8.64-11.37,11.91-17.77l11.75,4.87c.9,6.76,6.64,12,13.65,12,7.64,0,13.83-6.19,13.83-13.83s-6.19-13.83-13.83-13.83c-3.16,0-6.04,1.1-8.36,2.88l-11.72-4.85c2.19-6.69,3.61-13.72,4.16-20.99h12.7Z"/>
          <path class="cls-3" d="M314.36,270.33c0-13.27,7.45-24.79,18.38-30.64v-13.68c-18.04,6.66-30.93,23.97-30.93,44.33,0,3.08.32,6.08.88,8.99l11.78-6.8c-.04-.73-.11-1.45-.11-2.19Z"/>
          <path class="cls-3" d="M349.1,223.04c-1.88,0-3.72.14-5.55.35v12.68c1.81-.29,3.65-.48,5.55-.48,19.19,0,34.74,15.55,34.74,34.74s-15.55,34.74-34.74,34.74c-2.31,0-4.56-.25-6.75-.68l-14.3,8.26c6.34,3.17,13.48,4.98,21.05,4.98,26.12,0,47.29-21.17,47.29-47.29s-21.17-47.29-47.29-47.29Z"/>
          <circle class="cls-3" cx="349.33" cy="270.43" r="22.14"/>
        </g>
        <circle class="cls-3" cx="349.33" cy="270.43" r="22.14"/>
      </g>
    </g>
  </g>
</svg>