<svg xmlns="http://www.w3.org/2000/svg" xmlns:xlink="http://www.w3.org/1999/xlink" width="19" zoomAndPan="magnify" viewBox="0 0 14.25 14.25" height="19" preserveAspectRatio="xMidYMid meet" version="1.0"><defs><clipPath id="9ae71b6bf4"><path d="M 0 0 L 13.539062 0 L 13.539062 13.539062 L 0 13.539062 Z M 0 0 " clip-rule="nonzero"/></clipPath><clipPath id="fad1528e4a"><path d="M 0 0 L 13.539062 0 L 13.539062 12.960938 L 0 12.960938 Z M 0 0 " clip-rule="nonzero"/></clipPath><clipPath id="cdf4f16f0e"><path d="M 2.851562 0 L 10.671875 0 C 11.425781 0 12.152344 0.300781 12.6875 0.835938 C 13.21875 1.371094 13.519531 2.09375 13.519531 2.851562 L 13.519531 10.109375 C 13.519531 10.867188 13.21875 11.589844 12.6875 12.125 C 12.152344 12.660156 11.425781 12.960938 10.671875 12.960938 L 2.851562 12.960938 C 2.09375 12.960938 1.371094 12.660156 0.835938 12.125 C 0.300781 11.589844 0 10.867188 0 10.109375 L 0 2.851562 C 0 2.09375 0.300781 1.371094 0.835938 0.835938 C 1.371094 0.300781 2.09375 0 2.851562 0 Z M 2.851562 0 " clip-rule="nonzero"/></clipPath><clipPath id="9bdac019e3"><path d="M 0 0 L 13.539062 0 L 13.539062 12.960938 L 0 12.960938 Z M 0 0 " clip-rule="nonzero"/></clipPath><clipPath id="37949fedc7"><path d="M 2.851562 0 L 10.671875 0 C 11.425781 0 12.152344 0.300781 12.6875 0.835938 C 13.21875 1.371094 13.519531 2.09375 13.519531 2.851562 L 13.519531 10.109375 C 13.519531 10.867188 13.21875 11.589844 12.6875 12.125 C 12.152344 12.660156 11.425781 12.960938 10.671875 12.960938 L 2.851562 12.960938 C 2.09375 12.960938 1.371094 12.660156 0.835938 12.125 C 0.300781 11.589844 0 10.867188 0 10.109375 L 0 2.851562 C 0 2.09375 0.300781 1.371094 0.835938 0.835938 C 1.371094 0.300781 2.09375 0 2.851562 0 Z M 2.851562 0 " clip-rule="nonzero"/></clipPath><clipPath id="f54ee0f403"><rect x="0" width="14" y="0" height="13"/></clipPath><clipPath id="6e95dd75bf"><path d="M 0 0 L 13.539062 0 L 13.539062 13 L 0 13 Z M 0 0 " clip-rule="nonzero"/></clipPath><clipPath id="4fa1f9382a"><path d="M 0 0 L 13.539062 0 L 13.539062 12.960938 L 0 12.960938 Z M 0 0 " clip-rule="nonzero"/></clipPath><clipPath id="03d47b200c"><path d="M 2.851562 0 L 10.671875 0 C 11.425781 0 12.152344 0.300781 12.6875 0.835938 C 13.21875 1.371094 13.519531 2.09375 13.519531 2.851562 L 13.519531 10.109375 C 13.519531 10.867188 13.21875 11.589844 12.6875 12.125 C 12.152344 12.660156 11.425781 12.960938 10.671875 12.960938 L 2.851562 12.960938 C 2.09375 12.960938 1.371094 12.660156 0.835938 12.125 C 0.300781 11.589844 0 10.867188 0 10.109375 L 0 2.851562 C 0 2.09375 0.300781 1.371094 0.835938 0.835938 C 1.371094 0.300781 2.09375 0 2.851562 0 Z M 2.851562 0 " clip-rule="nonzero"/></clipPath><clipPath id="7233e42c36"><path d="M 0 0 L 13.539062 0 L 13.539062 12.960938 L 0 12.960938 Z M 0 0 " clip-rule="nonzero"/></clipPath><clipPath id="afaaccc7d1"><path d="M 2.851562 0 L 10.671875 0 C 11.425781 0 12.152344 0.300781 12.6875 0.835938 C 13.21875 1.371094 13.519531 2.09375 13.519531 2.851562 L 13.519531 10.109375 C 13.519531 10.867188 13.21875 11.589844 12.6875 12.125 C 12.152344 12.660156 11.425781 12.960938 10.671875 12.960938 L 2.851562 12.960938 C 2.09375 12.960938 1.371094 12.660156 0.835938 12.125 C 0.300781 11.589844 0 10.867188 0 10.109375 L 0 2.851562 C 0 2.09375 0.300781 1.371094 0.835938 0.835938 C 1.371094 0.300781 2.09375 0 2.851562 0 Z M 2.851562 0 " clip-rule="nonzero"/></clipPath><clipPath id="f91a0ef717"><rect x="0" width="14" y="0" height="13"/></clipPath><clipPath id="0c94afbfab"><path d="M 0.890625 0.609375 L 12.5 0.609375 L 12.5 12.21875 L 0.890625 12.21875 Z M 0.890625 0.609375 " clip-rule="nonzero"/></clipPath><clipPath id="307de6fa1c"><rect x="0" width="14" y="0" height="13"/></clipPath></defs><g clip-path="url(#9ae71b6bf4)"><path fill="#ffffff" d="M 0 0 L 13.539062 0 L 13.539062 13.539062 L 0 13.539062 Z M 0 0 " fill-opacity="1" fill-rule="nonzero"/></g><g clip-path="url(#fad1528e4a)"><g clip-path="url(#cdf4f16f0e)"><g transform="matrix(1, 0, 0, 1, 0, 0)"><g clip-path="url(#f54ee0f403)"><g clip-path="url(#9bdac019e3)"><g clip-path="url(#37949fedc7)"><path fill="#ffffff" d="M 0 0 L 13.515625 0 L 13.515625 12.960938 L 0 12.960938 Z M 0 0 " fill-opacity="1" fill-rule="nonzero"/></g></g></g></g></g></g><g clip-path="url(#6e95dd75bf)"><g transform="matrix(1, 0, 0, 1, 0, 0)"><g clip-path="url(#307de6fa1c)"><g clip-path="url(#4fa1f9382a)"><g clip-path="url(#03d47b200c)"><g transform="matrix(1, 0, 0, 1, 0, 0)"><g clip-path="url(#f91a0ef717)"><g clip-path="url(#7233e42c36)"><g clip-path="url(#afaaccc7d1)"><path fill="#11472c" d="M 0 0 L 13.515625 0 L 13.515625 12.960938 L 0 12.960938 Z M 0 0 " fill-opacity="1" fill-rule="nonzero"/></g></g></g></g></g></g><g clip-path="url(#0c94afbfab)"><path fill="#fbf6f3" d="M 12.625 3.8125 C 12.625 2.042969 11.191406 0.609375 9.425781 0.609375 L 4.089844 0.609375 C 2.324219 0.609375 0.890625 2.042969 0.890625 3.8125 L 0.890625 9.144531 C 0.890625 10.910156 2.324219 12.34375 4.089844 12.34375 L 9.425781 12.34375 C 11.191406 12.34375 12.625 10.910156 12.625 9.144531 Z M 11.558594 3.8125 L 11.558594 9.144531 C 11.558594 10.324219 10.601562 11.277344 9.425781 11.277344 C 9.425781 11.277344 4.089844 11.277344 4.089844 11.277344 C 2.914062 11.277344 1.957031 10.324219 1.957031 9.144531 L 1.957031 3.8125 C 1.957031 2.632812 2.914062 1.675781 4.089844 1.675781 L 9.425781 1.675781 C 10.601562 1.675781 11.558594 2.632812 11.558594 3.8125 Z M 11.558594 3.8125 " fill-opacity="1" fill-rule="evenodd"/></g><path fill="#fbf6f3" d="M 9.417969 6.0625 C 9.246094 4.90625 8.332031 3.988281 7.171875 3.816406 C 7.042969 3.796875 6.914062 3.789062 6.78125 3.789062 C 5.316406 3.789062 4.113281 4.992188 4.113281 6.453125 C 4.113281 7.917969 5.316406 9.121094 6.78125 9.121094 C 8.246094 9.121094 9.449219 7.917969 9.449219 6.453125 C 9.449219 6.324219 9.4375 6.191406 9.417969 6.0625 Z M 8.363281 6.21875 C 8.375 6.296875 8.382812 6.375 8.382812 6.453125 C 8.382812 7.332031 7.660156 8.054688 6.78125 8.054688 C 5.902344 8.054688 5.179688 7.332031 5.179688 6.453125 C 5.179688 5.578125 5.902344 4.855469 6.78125 4.855469 C 6.859375 4.855469 6.9375 4.859375 7.015625 4.871094 C 7.710938 4.976562 8.261719 5.523438 8.363281 6.21875 Z M 8.363281 6.21875 " fill-opacity="1" fill-rule="evenodd"/><path fill="#fbf6f3" d="M 10.246094 3.542969 C 10.246094 3.695312 10.195312 3.824219 10.085938 3.929688 C 9.980469 4.039062 9.851562 4.089844 9.699219 4.089844 C 9.546875 4.089844 9.417969 4.039062 9.3125 3.929688 C 9.203125 3.824219 9.148438 3.695312 9.148438 3.542969 C 9.148438 3.390625 9.203125 3.261719 9.3125 3.15625 C 9.417969 3.046875 9.546875 2.992188 9.699219 2.992188 C 9.851562 2.992188 9.980469 3.046875 10.085938 3.15625 C 10.195312 3.261719 10.246094 3.390625 10.246094 3.542969 Z M 10.246094 3.542969 " fill-opacity="1" fill-rule="nonzero"/></g></g></g></svg>