<svg xmlns="http://www.w3.org/2000/svg" xmlns:xlink="http://www.w3.org/1999/xlink" width="22" zoomAndPan="magnify" viewBox="0 0 16.5 14.25" height="19" preserveAspectRatio="xMidYMid meet" version="1.0"><defs><clipPath id="9e935b48cf"><path d="M 0.175781 0 L 15.851562 0 L 15.851562 13.539062 L 0.175781 13.539062 Z M 0.175781 0 " clip-rule="nonzero"/></clipPath><clipPath id="f599dcb559"><path d="M 0.175781 0 L 13.742188 0 L 13.742188 12.960938 L 0.175781 12.960938 Z M 0.175781 0 " clip-rule="nonzero"/></clipPath><clipPath id="1242a4e4c1"><path d="M 3.023438 0 L 10.84375 0 C 11.601562 0 12.324219 0.300781 12.859375 0.835938 C 13.394531 1.371094 13.695312 2.09375 13.695312 2.851562 L 13.695312 10.109375 C 13.695312 10.867188 13.394531 11.589844 12.859375 12.125 C 12.324219 12.660156 11.601562 12.960938 10.84375 12.960938 L 3.023438 12.960938 C 2.269531 12.960938 1.542969 12.660156 1.007812 12.125 C 0.476562 11.589844 0.175781 10.867188 0.175781 10.109375 L 0.175781 2.851562 C 0.175781 2.09375 0.476562 1.371094 1.007812 0.835938 C 1.542969 0.300781 2.269531 0 3.023438 0 Z M 3.023438 0 " clip-rule="nonzero"/></clipPath><clipPath id="b4d84b17c5"><path d="M 0.175781 0 L 13.742188 0 L 13.742188 12.960938 L 0.175781 12.960938 Z M 0.175781 0 " clip-rule="nonzero"/></clipPath><clipPath id="173e50d36e"><path d="M 3.023438 0 L 10.84375 0 C 11.601562 0 12.324219 0.300781 12.859375 0.835938 C 13.394531 1.371094 13.695312 2.09375 13.695312 2.851562 L 13.695312 10.109375 C 13.695312 10.867188 13.394531 11.589844 12.859375 12.125 C 12.324219 12.660156 11.601562 12.960938 10.84375 12.960938 L 3.023438 12.960938 C 2.269531 12.960938 1.542969 12.660156 1.007812 12.125 C 0.476562 11.589844 0.175781 10.867188 0.175781 10.109375 L 0.175781 2.851562 C 0.175781 2.09375 0.476562 1.371094 1.007812 0.835938 C 1.542969 0.300781 2.269531 0 3.023438 0 Z M 3.023438 0 " clip-rule="nonzero"/></clipPath><clipPath id="4cd5c8a648"><rect x="0" width="14" y="0" height="13"/></clipPath><clipPath id="2586e2d14b"><path d="M 14 11 L 15 11 L 15 12.972656 L 14 12.972656 Z M 14 11 " clip-rule="nonzero"/></clipPath><clipPath id="2945b1346a"><path d="M 0.175781 0.148438 L 13 0.148438 L 13 12.972656 L 0.175781 12.972656 Z M 0.175781 0.148438 " clip-rule="nonzero"/></clipPath><clipPath id="d7bee846e8"><path d="M 13 11 L 15.136719 11 L 15.136719 12.972656 L 13 12.972656 Z M 13 11 " clip-rule="nonzero"/></clipPath></defs><g clip-path="url(#9e935b48cf)"><path fill="#ffffff" d="M 0.175781 0 L 15.851562 0 L 15.851562 13.539062 L 0.175781 13.539062 Z M 0.175781 0 " fill-opacity="1" fill-rule="nonzero"/></g><g clip-path="url(#f599dcb559)"><g clip-path="url(#1242a4e4c1)"><g><g clip-path="url(#4cd5c8a648)"><g clip-path="url(#b4d84b17c5)"><g clip-path="url(#173e50d36e)"><path fill="#ffffff" d="M 0.175781 0 L 13.691406 0 L 13.691406 12.960938 L 0.175781 12.960938 Z M 0.175781 0 " fill-opacity="1" fill-rule="nonzero"/></g></g></g></g></g></g><g clip-path="url(#2586e2d14b)"><path fill="#11472c" d="M 14.503906 12.175781 C 14.636719 12.179688 14.742188 12.074219 14.742188 11.941406 C 14.742188 11.9375 14.742188 11.933594 14.742188 11.925781 C 14.742188 11.75 14.636719 11.664062 14.417969 11.664062 L 14.0625 11.664062 L 14.0625 12.59375 L 14.195312 12.59375 L 14.195312 12.1875 L 14.359375 12.1875 L 14.363281 12.191406 L 14.617188 12.59375 L 14.761719 12.59375 L 14.488281 12.179688 Z M 14.351562 12.082031 L 14.195312 12.082031 L 14.195312 11.769531 L 14.390625 11.769531 C 14.492188 11.769531 14.609375 11.789062 14.609375 11.921875 C 14.609375 12.070312 14.492188 12.085938 14.351562 12.085938 " fill-opacity="1" fill-rule="nonzero"/></g><g clip-path="url(#2945b1346a)"><path fill="#11472c" d="M 11.03125 11.015625 L 9.144531 11.015625 L 9.144531 8.058594 C 9.144531 7.355469 9.132812 6.445312 8.160156 6.445312 C 7.191406 6.445312 7.027344 7.214844 7.027344 8.007812 L 7.027344 11.015625 L 5.140625 11.015625 L 5.140625 4.9375 L 6.953125 4.9375 L 6.953125 5.765625 L 6.976562 5.765625 C 7.347656 5.132812 8.035156 4.757812 8.765625 4.785156 C 10.679688 4.785156 11.03125 6.042969 11.03125 7.679688 Z M 3.007812 4.105469 C 2.40625 4.105469 1.914062 3.613281 1.914062 3.007812 C 1.914062 2.40625 2.402344 1.914062 3.007812 1.914062 C 3.613281 1.914062 4.105469 2.402344 4.105469 3.007812 C 4.105469 3.613281 3.613281 4.105469 3.007812 4.105469 M 3.953125 11.015625 L 2.0625 11.015625 L 2.0625 4.9375 L 3.953125 4.9375 Z M 11.972656 0.160156 L 1.117188 0.160156 C 0.601562 0.15625 0.179688 0.566406 0.175781 1.078125 L 0.175781 11.980469 C 0.179688 12.496094 0.601562 12.90625 1.117188 12.902344 L 11.972656 12.902344 C 12.488281 12.90625 12.910156 12.496094 12.917969 11.980469 L 12.917969 1.078125 C 12.910156 0.5625 12.488281 0.152344 11.972656 0.160156 " fill-opacity="1" fill-rule="nonzero"/></g><g clip-path="url(#d7bee846e8)"><path fill="#11472c" d="M 14.367188 11.253906 C 13.886719 11.257812 13.5 11.648438 13.507812 12.128906 C 13.511719 12.609375 13.902344 12.996094 14.382812 12.992188 C 14.863281 12.984375 15.25 12.59375 15.242188 12.113281 C 15.238281 11.640625 14.855469 11.257812 14.382812 11.253906 L 14.367188 11.253906 M 14.367188 12.890625 C 13.945312 12.898438 13.597656 12.5625 13.59375 12.140625 C 13.585938 11.722656 13.921875 11.375 14.339844 11.367188 C 14.761719 11.359375 15.109375 11.695312 15.117188 12.117188 L 15.117188 12.128906 C 15.125 12.542969 14.796875 12.882812 14.386719 12.890625 L 14.367188 12.890625 " fill-opacity="1" fill-rule="nonzero"/></g></svg>